<svg width="276" height="298" viewBox="0 0 276 298" fill="none" xmlns="http://www.w3.org/2000/svg">
<path d="M162.129 149L273.372 28.5361C275.767 25.9399 275.767 21.7333 273.372 19.1371L257.507 1.94636C256.356 0.7032 254.791 0 253.164 0C251.535 0 249.973 0.7032 248.822 1.94636L137.582 122.413L26.3424 1.94636C24.0378 -0.549375 19.9592 -0.546236 17.6604 1.94636L1.798 19.1371C-0.599333 21.7333 -0.599333 25.9399 1.798 28.5361L113.038 149L1.798 269.464C-0.599333 272.06 -0.599333 276.267 1.798 278.863L17.6633 296.054C18.8141 297.297 20.3766 298 22.0058 298C23.6349 298 25.1945 297.297 26.3453 296.054L137.585 175.587L248.825 296.054C249.976 297.297 251.541 298 253.167 298C254.794 298 256.359 297.297 257.51 296.054L273.375 278.863C275.769 276.267 275.769 272.06 273.375 269.464L162.129 149Z" fill="#F5F5F5"/>
</svg>
